<svg xmlns="http://www.w3.org/2000/svg" xmlns:xlink="http://www.w3.org/1999/xlink" width="83" height="91" viewBox="0 0 83 91">
    <defs>
        <path id="a" d="M0 0h84v91H0z"/>
    </defs>
    <g fill="none" fill-rule="evenodd" transform="translate(-1)">
        <mask id="b" fill="#fff">
            <use xlink:href="#a"/>
        </mask>
        <path fill="#818285" d="M70.587 48.374c-.483.107-.539.733-.944.974-.545.629-1.231 1.366-2.136 1.25-1.13.103-1.842-.986-2.467-1.775-.839-.414-1.688.227-2.466.51-.752.367-1.721.964-1.561 1.959.247 1.069 1.31 1.515 2.114 2.079.942.28 1.626 1.193 2.672 1.139 1.35.267 2.35-.792 3.316-1.555.91-.18 1.545-.9 2.322-1.353.37-.69 1.251-1.133 1.095-2.037.087-1.029-1.127-1.501-1.945-1.191m-15.644-3.562c-.696.267-1.23.81-1.904 1.124-.603.477-1.361.752-1.816 1.403-1.05.352-1.56 1.389-2.166 2.237-.018.434-.113 1.028.34 1.275.45.303.994.75 1.559.57 1.341-.943 3.069-.3 4.54-.808.771-.218 1.602-.103 2.37-.371 1.137-.218 2.544-.701 2.856-1.975-.557-1.565-2.04-2.56-2.567-4.157-.614-.21-1.296-.278-1.93-.115-.478.184-.816.607-1.282.817m7.5-1.312c-.403.25-1.002.358-1.134.894-.177.616-.025 1.268.043 1.893.05.703.764 1.295 1.455 1.139.824.021 1.262-.777 1.677-1.369.204-.726.236-1.81-.539-2.193-.446-.256-.98-.691-1.501-.364m-36.48.089c-.407.302-1.003.406-1.223.915-.198.454-.696 1.005-.294 1.489.413.572.798 1.285 1.52 1.49.735.203 1.29.776 1.993 1.058.945.25 1.829.687 2.7 1.13.441.14.907-.014 1.343-.11.35-.482.431-1.13.3-1.706-.687-1.468-1.886-2.594-3.047-3.676-.922-.676-2.207-1.07-3.291-.59m-11.746.42a4.488 4.488 0 0 0 .041 1.569c.094.48.632.625.864 1.013.57.796 1.12 1.735 2.175 1.88.583-.27 1.23-.75 1.884-.398.572.446 1.057 1.107 1.825 1.201.782.158 1.495-.523 1.735-1.225.198-1.07-.57-1.89-.996-2.777-.155-.33-.557-.44-.728-.76-.278-.602-.96-.777-1.448-1.155-.972-.663-2.193-.67-3.319-.599-.806.137-1.454.706-2.033 1.252m34.41-3.214c-.686.917-1.598 1.759-1.876 2.912.169 1.029 1.126 2.297 2.275 1.866.839-.163 1.257-1.084 2.148-1.115.252-.722.982-1.015 1.488-1.516.249-.692-.171-1.278-.728-1.631-.444-.22-.386-.935-.91-1.009-.802-.2-1.892-.342-2.398.493m-15.858.125c-.022 1.33.033 2.66.078 3.99.035 1.04.882 1.754 1.124 2.734.69.959 1.219 2.041 1.936 2.993.566.645.558 1.654 1.271 2.19.465.463 1.282.667 1.4 1.41.087 1.055.604 2.016 1.221 2.849.683.542 1.695.357 2.408-.018.442-1.384.206-3.119-1.037-3.973-.562-.146-1.015-.53-1.318-1.024-.025-.813-.055-1.65-.438-2.388-.267-.265-.516-.542-.593-.926-.15-.638-.79-.98-.964-1.603-.186-.592-.39-1.178-.677-1.728-.397-.805-.474-1.723-.858-2.532-.312-.642-.128-1.464-.617-2.019-.517-.605-1.395-.866-2.146-.612-.354.045-.812.219-.79.657m45.076-1.43c-.368.166-.507.624-.814.88-.636.52-.653 1.433-1.194 2.021-.433.562-.224 1.314-.263 1.97.003.889-.087 1.997.71 2.589a1.5 1.5 0 0 0 1.99.105c.48-.463.715-1.14.694-1.808-.024-1.218.64-2.27 1.121-3.338.357-.82.007-1.733-.58-2.338a2.021 2.021 0 0 0-1.664-.08m-32.487-3.967c-.508.757-.811 1.807-.363 2.668.252.748.698 1.577 1.57 1.662.52-.149.879-.604 1.336-.877.594-.347 1.079-1.037.888-1.761-.253-.831-.93-1.406-1.447-2.065-.664-.098-1.534-.286-1.984.373m-15.935-1.837c-.251.605-.914 1.063-.845 1.779.237 1.028 1.175 1.628 1.7 2.472.598.102.961.77 1.538.81.657-.429 1.54-.745 1.704-1.624.463-.994-.009-2.116-.74-2.83-.373-.687-.895-1.242-1.49-1.744-.833-.301-1.514.465-1.867 1.137m6.96-1.64c-.542.723-1.2 1.575-.964 2.542.437 1.288.986 2.564 1.834 3.631.276.384.615.74.773 1.197.271.954.775 1.896 1.501 2.557.94.812 2.471-.092 2.431-1.273-.69-1.55-1.579-3.166-1.256-4.934.556-.271 1.192-.577 1.38-1.234.363-.692-.144-1.553-.83-1.76-.617-.031-1.252.213-1.848-.021-.515-.33-.881-.831-1.257-1.306-.626-.14-1.414.01-1.764.601m23.36-1.23c-.722.786-1.186 1.764-1.657 2.714-.243.577-.381 1.245-.94 1.605-.958 1.429-2.076 2.876-2.285 4.665.022.825.737 1.277 1.162 1.89.547.528 1.405.314 1.995-.029.549-.613 1.157-1.19 1.589-1.902.354-1.16.643-2.343 1.042-3.488.127-.969.185-2.17 1.101-2.735.34-.722.18-1.85-.546-2.301-.425-.282-.954-.887-1.461-.419M44.55 29.71a8.092 8.092 0 0 0 .015 1.759c.316.408.607.852.98 1.208.703.23 1.551.059 1.999-.57.538-.785 1.258-1.488 1.442-2.466-.222-.772-.877-1.289-1.58-1.584-1.173.004-2.067.876-2.856 1.653m9.997-6.145c-.404.176-.811.35-1.21.534-.487.232-.81.75-1.365.837-.85.21-1.707 1.373-.998 2.171.755.731.453 1.881.675 2.807.478 1.015.688 2.184 1.474 3.028.333.52.956.792 1.557.774.69-.165 1.006-.91 1.363-1.46.252-.466-.176-.856-.332-1.269-.13-.44-.128-.906-.115-1.362-.017-.622.674-.967.696-1.575-.006-1.224.83-2.5.152-3.675-.451-.554-1.143-1.189-1.897-.81M37.452 20.75c-.706.14-1.078.803-1.516 1.306-.584.525-.538 1.453-.27 2.134.382.622.655 1.52 1.509 1.566.545-.02 1.226-.18 1.45-.755.323-.633.95-1.138.976-1.9.12-.675-.485-1.119-.794-1.635-.348-.358-.825-.814-1.355-.716m-8.587-.04c-.316.316-.415.78-.561 1.188-.272.747.542 1.324.44 2.077.207 1.07-1.08 1.612-1.093 2.62-.112.631.475 1.03.75 1.525.517.456 1.145 1.223 1.905.85.366-.293.697-.626 1.02-.967.484-.987 1.43-1.625 1.952-2.588.211-.348.112-.776-.05-1.12-.694-.185-.613-1.055-1.163-1.409-.604-.648-.923-1.517-1.379-2.275-.591-.173-1.262-.182-1.82.1m-11.909-3.644c-.419.21-.942.395-1.115.881-.245.763-.587 1.494-.764 2.282-.147.682-.801 1.245-.568 1.995.305.952 1.215 1.49 1.977 2.037.596.006 1.09-.519 1.58-.824.379-.753 1-1.326 1.7-1.76.264-.607.81-1.117.838-1.806-.189-1.228-1.282-1.954-2.19-2.642-.384-.373-.999-.397-1.458-.163m12.596-6.513c-1.019.2-1.685 1.464-1.147 2.394.69.649 1.636 1.056 2.582.896.744-.143 1.224-.855 1.343-1.574-.137-.586-.643-.983-.987-1.447-.437-.545-1.203-.428-1.791-.269m26.512-5.593a2.48 2.48 0 0 0-1.2 1.246c-.195.823.254 1.668.887 2.16.477.387 1.042.947 1.707.66 1.516-.523 1.828-2.887.556-3.826-.614-.212-1.318-.616-1.95-.24M38.275.813c.848-.614 1.918-.948 2.957-.761.876.34 1.635.96 2.577 1.134.482.016.615.536.937.8.856.63.404 1.894.95 2.716.895.45 1.73-.45 2.063-1.22.583-1.348 2.166-2.144 3.562-1.67.85.38 1.713.737 2.585 1.06.679.266 1.379-.094 2.075-.064.835.02 1.713.05 2.488.4.6.485 1.262.88 1.881 1.34.969.128 1.94-.026 2.894-.19.493-.092.863.315 1.186.632.295.972-.626 1.582-1.064 2.301-.21.899.677 1.504 1.392 1.775.827.102 1.49-.528 2.203-.844 1.283-.852 3.44.434 3.058 2.048-.165 1.323-1.69 1.83-1.971 3.084-.065.922.81 1.481 1.086 2.286.492 1.25.25 2.625-.054 3.891-.24.815.159 1.655-.008 2.486-.185.388-.47.717-.732 1.054-.893.453-1.899.637-2.802 1.067-.591.278-.777.984-.893 1.579-.151.915.71 1.79 1.589 1.778.68-.07 1.112-.678 1.737-.896.638-.248.958-.982 1.655-1.116 1.26-.62 2.387-1.95 2.242-3.453-.017-.55-.053-1.107.011-1.655.523-.58.918-1.51 1.824-1.49.747-.09 1.068.752 1.349 1.306.266.939.431 2.026 1.207 2.69.752.655 1.896-.103 2.626.602.445.36 1.075.436 1.416.933.343.303.231.818.192 1.223-1.316 1.162-3.335 1.236-4.41 2.711-.552.38-.862 1.015-1.46 1.338-.5.276-.863.937-.517 1.47.606.71 1.472 1.122 2.232 1.638.393.701.018 1.734.764 2.254.616.616 1.519.167 1.93-.46.803-.568.678-1.698.362-2.511a3.113 3.113 0 0 1-.237-1.911c.569-.573 1.117-1.16 1.687-1.731.568-.078 1.197-.298 1.747-.044.301.42.707.866.664 1.423-.008 1.021.078 2.065-.206 3.059.074.967.326 1.954.119 2.928-.303.859-.077 1.784-.068 2.674.214 1.06.727 2.31.038 3.299-.882 1.004-2.328 1.618-2.65 3.036-.379 1.061.89 2.293 1.885 1.643.656-.185.859-.879 1.26-1.352.442-.056.925-.035 1.311.221.278.92-.576 1.599-.418 2.512.197.688.512 1.404.34 2.134-.364.465-.801.9-1.365 1.092-.634.227-1.419.362-1.764 1.023-.366 1.137.472 2.181.344 3.312-.27.798-1.235.449-1.856.587-.724.799-1.867 1.033-2.894.91-.946-.046-1.92.015-2.817-.356-.801-.909-.196-2.239-.917-3.16-.339-.588-1.176-.482-1.67-.18-.625.74-1.362 1.404-1.816 2.272-.22.272-.622.417-.64.82-.189.881-1.272.8-1.955.814-1.39.136-2.715-.484-3.853-1.236-.61-.284-1.358-.232-1.884-.71-.587-.493-1.381-.398-2.082-.524-.613-.224-1.134-.69-1.805-.747-1.715-.219-3.57-.566-5.219.139-.67.692-1.678 1.028-2.14 1.935-.183.494-.594.857-.78 1.345-.161.629-.161 1.288-.316 1.921-.275 1.046.111 2.202-.386 3.197-.047 1.438-.359 2.85-.419 4.286.127 1.779-.766 3.54-.257 5.303.403.933.264 1.972.403 2.957.006.96.543 1.82.515 2.783-.018 1.08.443 2.085.967 2.995.348.561.346 1.288.78 1.802.294.386.38.894.672 1.285.903.91 1.734 1.923 2.913 2.477.243.643-.167 1.294-.782 1.485-1.16.098-2.279-.34-3.436-.36-1.076-.154-2.144-.384-3.205-.627-1.843-.072-3.67-.647-5.528-.43-1.163.122-2.225.653-3.316 1.035-.65.644-1.399 1.197-1.94 1.937-.232.623-.483 1.41-1.184 1.623-.55.02-1.188.106-1.667-.228-.277-1.053.757-1.62 1.362-2.26.347-.688.64-1.425.66-2.21.195-1.65 1.528-2.753 2.232-4.174.174-.51.836-.709.82-1.305.337-1.368-.306-2.99.656-4.165.449-.642.379-1.473.655-2.18.544-1.012.326-2.214.337-3.318-.111-.05-.334-.15-.444-.197-.176-.927-.8-1.73-.727-2.701.047-2.028.076-4.057.05-6.086-.556-1.963-1.365-3.976-2.98-5.28-.579-.786-1.33-1.4-1.92-2.175-.471-.464-1.076-.79-1.466-1.338-.312-.492-.948-.605-1.19-1.162-1.306-.669-2.335-1.857-3.782-2.232-.648-.187-1.2-.926-1.92-.595-.69.328-1.156 1.135-1.069 1.914.008.49.504.817.464 1.32.026.34-.047.679-.162 1-.427-.05-1.046.221-1.316-.237-.41-.72-1.084-1.21-1.606-1.836-.53-.636-1.445-.698-2.193-.514-.522.243-.457.9-.588 1.375-.038.611-.55.998-.93 1.41-.438.114-.934.114-1.286.44-.811.722-1.992.759-3.01.623-.321-.07-.386-.463-.49-.723-.2-.978-.658-1.867-.895-2.835-.73-.473-1.64-.638-2.45-.945-.435-.382-.75-.944-1.345-1.09-.466-.123-.793-.594-1.315-.472-.902.08-1.727-.343-2.597-.482-.726-.143-1.487.386-2.183.018-.434-.376-.13-1.02-.024-1.483.11-.474.657-.495.989-.73.194-.227.344-.516.646-.615.732-.334 1.33-.981 2.156-1.083.79-.089 1.634-.01 2.364-.39.983-.612 2.366-.72 2.928-1.876.262-1.056-.542-1.965-1.09-2.777-.467-.401-.783-1.186-1.492-1.134-.562.165-1.27.236-1.563.826-.527.768-1.378 1.24-1.837 2.055-.569.368-1.19.96-1.918.652-1.023-.247-1.625-1.244-2.622-1.516-.73-.93-.681-2.759.577-3.18.484-.494.905-1.12.99-1.83.015-.681-.164-1.46.318-2.028a2.65 2.65 0 0 1 1.562-.2c.442.165.961.62 1.411.215.413-.366 1.141-.585 1.146-1.243.06-.633-.407-1.123-.763-1.583-.523-.805-.94-1.767-.755-2.755.12-.648.125-1.308.118-1.965-.107-1.36 1.002-2.349 1.728-3.358.677-.04 1.563-.281 2.056.335.605.228 1.341.438 1.913.008.48-.64.262-1.585-.273-2.116-.34-.322-.326-.964-.838-1.083-.473-.13-.6-.711-1.047-.885-.636-.251-1.311-.399-1.944-.664-.47-.598-.224-1.448-.112-2.134.407-1.095.461-2.533 1.557-3.19.533-.426 1.286-.139 1.84-.536.75-.835 1.64-1.592 2.085-2.66.256-.574.588-1.11.968-1.61.78-.307 1.19.452 1.714.871.605.785.54 1.796.474 2.733.215 1.11.98 2.282 2.185 2.447.959-.052 1.645-.81 2.363-1.363.466-.557.161-1.311-.061-1.906-.312-.837-1.031-1.396-1.532-2.108-.244-.84-.405-1.868.24-2.57 1.04-.76 2.51-.758 3.378-1.773 1.113-1.019 2.744-.826 3.983-1.587.551-.334 1.17-.531 1.769-.76.95-.213 1.935-.025 2.9-.136.92-.136 1.71.456 2.327 1.078.344.388.94.402 1.412.313.519-.41.856-1 1.289-1.497.529-.425 1.27-.35 1.82-.731" mask="url(#b)"/>
    </g>
</svg>
