<svg xmlns="http://www.w3.org/2000/svg" width="40" height="38" viewBox="0 0 40 38">
    <g fill="none" fill-rule="evenodd" transform="translate(-4 -6)">
        <circle cx="9" cy="19" r="5" fill="#FFF"/>
        <circle cx="18" cy="11" r="5" fill="#FFF"/>
        <circle cx="30" cy="11" r="5" fill="#FFF"/>
        <circle cx="39" cy="19" r="5" fill="#FFF"/>
        <path fill="#FFF" d="M34.68 29.72c-1.74-2.04-3.2-3.78-4.96-5.82-.92-1.08-2.1-2.16-3.5-2.64a4.05 4.05 0 0 0-.66-.18C25.06 21 24.52 21 24 21s-1.06 0-1.58.1c-.22.04-.44.1-.66.18-1.4.48-2.56 1.56-3.5 2.64-1.74 2.04-3.2 3.78-4.96 5.82-2.62 2.62-5.84 5.52-5.24 9.58.58 2.04 2.04 4.06 4.66 4.64 1.46.3 6.12-.88 11.08-.88h.36c4.96 0 9.62 1.16 11.08.88 2.62-.58 4.08-2.62 4.66-4.64.62-4.08-2.6-6.98-5.22-9.6z"/>
        <path d="M0 0h48v48H0z"/>
    </g>
</svg>
