<svg xmlns="http://www.w3.org/2000/svg" xmlns:xlink="http://www.w3.org/1999/xlink" width="543" height="188" viewBox="0 0 543 188">
    <defs>
        <path id="a" d="M.416.19h151.68v162.25H.416z"/>
        <path id="c" d="M0 .634h75.035v66.27H0z"/>
        <path id="e" d="M.182.262h20.122V26H.182z"/>
    </defs>
    <g fill="none" fill-rule="evenodd">
        <g transform="translate(390)">
            <mask id="b" fill="#fff">
                <use xlink:href="#a"/>
            </mask>
            <path fill="#818285" d="M127.07 86.439c-.872.19-.972 1.306-1.704 1.736-.984 1.122-2.223 2.437-3.857 2.228-2.039.185-3.326-1.757-4.454-3.164-1.516-.738-3.05.406-4.454.909-1.357.654-3.108 1.72-2.819 3.493.447 1.906 2.365 2.702 3.819 3.707 1.7.499 2.934 2.127 4.823 2.03 2.438.477 4.246-1.41 5.988-2.772 1.642-.321 2.79-1.606 4.193-2.412.668-1.23 2.26-2.02 1.979-3.632.157-1.834-2.037-2.676-3.514-2.123m-28.247-6.35c-1.257.476-2.223 1.442-3.439 2.003-1.09.85-2.458 1.341-3.28 2.501-1.897.627-2.815 2.477-3.91 3.988-.034.774-.204 1.834.614 2.274.813.541 1.794 1.339 2.815 1.017 2.421-1.682 5.54-.537 8.198-1.442 1.392-.387 2.893-.182 4.28-.66 2.053-.388 4.593-1.25 5.156-3.522-1.006-2.79-3.682-4.566-4.635-7.412-1.109-.376-2.34-.495-3.486-.205-.862.33-1.473 1.083-2.313 1.457m13.543-2.34c-.728.446-1.81.64-2.048 1.594-.32 1.098-.046 2.262.076 3.376.09 1.254 1.381 2.31 2.629 2.03 1.488.039 2.278-1.385 3.028-2.44.368-1.295.425-3.229-.973-3.91-.806-.456-1.772-1.233-2.712-.65m-65.87.16c-.736.538-1.813.723-2.21 1.632-.358.808-1.257 1.79-.531 2.653.746 1.02 1.441 2.292 2.745 2.656 1.326.363 2.33 1.385 3.599 1.887 1.707.446 3.301 1.226 4.874 2.016.798.247 1.64-.025 2.425-.197.632-.86.78-2.016.544-3.04-1.242-2.619-3.406-4.626-5.503-6.555-1.666-1.206-3.986-1.907-5.943-1.053m-21.21.75a7.903 7.903 0 0 0 .075 2.796c.168.855 1.14 1.115 1.56 1.807 1.03 1.42 2.022 3.094 3.926 3.353 1.054-.484 2.22-1.338 3.402-.711 1.033.796 1.909 1.974 3.296 2.142 1.411.282 2.7-.932 3.133-2.185.357-1.907-1.03-3.369-1.798-4.95-.281-.588-1.006-.785-1.315-1.358-.501-1.071-1.732-1.383-2.614-2.058-1.756-1.182-3.961-1.194-5.994-1.067-1.456.245-2.626 1.258-3.67 2.231m62.132-5.73c-1.237 1.635-2.884 3.136-3.386 5.193.305 1.834 2.033 4.095 4.108 3.327 1.515-.291 2.27-1.934 3.879-1.988.455-1.288 1.774-1.81 2.688-2.704.448-1.232-.31-2.277-1.315-2.908-.802-.39-.698-1.667-1.642-1.798-1.45-.356-3.418-.61-4.332.878m-28.636.224c-.04 2.372.06 4.742.143 7.112.062 1.856 1.592 3.128 2.028 4.877 1.248 1.709 2.201 3.638 3.497 5.335 1.022 1.15 1.006 2.949 2.295 3.906.84.824 2.314 1.188 2.527 2.515.157 1.88 1.09 3.592 2.205 5.077 1.233.967 3.061.638 4.349-.031.798-2.467.37-5.56-1.873-7.085-1.014-.259-1.832-.944-2.38-1.825-.046-1.45-.1-2.943-.791-4.258-.481-.472-.932-.966-1.071-1.65-.27-1.138-1.427-1.749-1.74-2.859-.336-1.055-.705-2.1-1.222-3.081-.718-1.436-.856-3.072-1.55-4.513-.563-1.146-.232-2.611-1.115-3.6-.933-1.08-2.519-1.544-3.875-1.092-.638.08-1.466.39-1.427 1.172m81.395-2.549c-.664.295-.916 1.111-1.47 1.566-1.148.929-1.179 2.557-2.156 3.606-.782 1.001-.404 2.342-.474 3.51.004 1.586-.158 3.562 1.281 4.618.948.95 2.548 1.033 3.593.186.87-.824 1.293-2.031 1.254-3.222-.043-2.173 1.154-4.049 2.025-5.952.644-1.461.012-3.09-1.049-4.169-.924-.459-2.04-.537-3.004-.143M81.515 63.53c-.916 1.349-1.464 3.22-.655 4.756.455 1.335 1.26 2.812 2.834 2.963.94-.265 1.588-1.075 2.414-1.563 1.072-.618 1.948-1.848 1.604-3.14-.458-1.482-1.68-2.507-2.614-3.682-1.2-.174-2.77-.51-3.583.666m-28.773-3.277c-.453 1.08-1.65 1.896-1.526 3.172.428 1.834 2.122 2.904 3.07 4.409 1.08.181 1.735 1.373 2.777 1.443 1.187-.763 2.78-1.328 3.077-2.894.837-1.774-.016-3.774-1.334-5.046-.676-1.226-1.619-2.216-2.692-3.11-1.505-.537-2.735.828-3.372 2.026m12.569-2.923c-.979 1.289-2.167 2.808-1.743 4.533.79 2.296 1.78 4.57 3.312 6.473.499.686 1.11 1.32 1.397 2.135.49 1.701 1.4 3.38 2.71 4.56 1.698 1.446 4.463-.166 4.39-2.27-1.248-2.766-2.852-5.647-2.269-8.799 1.004-.482 2.153-1.029 2.492-2.2.655-1.233-.259-2.769-1.5-3.137-1.112-.057-2.26.38-3.335-.038-.93-.587-1.591-1.481-2.27-2.328-1.13-.251-2.553.016-3.184 1.071m42.18-2.193c-1.303 1.401-2.14 3.144-2.991 4.839-.44 1.029-.689 2.22-1.696 2.862-1.732 2.547-3.75 5.127-4.127 8.317.038 1.47 1.329 2.278 2.097 3.369.988.943 2.537.56 3.602-.05.992-1.094 2.09-2.123 2.87-3.392.64-2.068 1.16-4.177 1.88-6.219.232-1.727.336-3.87 1.99-4.877.614-1.287.324-3.297-.987-4.103-.768-.5-1.722-1.58-2.638-.746m-27.434-1.976a14.248 14.248 0 0 0 .027 3.136c.571.728 1.096 1.52 1.77 2.155 1.27.41 2.8.104 3.61-1.017.971-1.4 2.272-2.653 2.604-4.397-.402-1.377-1.584-2.297-2.854-2.824-2.118.008-3.733 1.562-5.157 2.947m18.052-10.955c-.729.313-1.465.622-2.186.952-.879.413-1.463 1.337-2.464 1.492-1.534.375-3.081 2.448-1.802 3.871 1.362 1.303.818 3.353 1.219 5.004.864 1.81 1.242 3.894 2.661 5.4.602.926 1.727 1.41 2.812 1.379 1.246-.294 1.817-1.623 2.46-2.602.455-.832-.316-1.528-.599-2.263-.234-.784-.23-1.616-.207-2.429-.031-1.11 1.218-1.724 1.257-2.808-.011-2.183 1.499-4.458.275-6.553-.815-.987-2.064-2.12-3.426-1.443m-30.87-5.02c-1.275.251-1.948 1.431-2.738 2.328-1.055.936-.972 2.591-.487 3.805.689 1.11 1.182 2.712 2.724 2.792.984-.034 2.214-.32 2.618-1.345.583-1.13 1.716-2.03 1.762-3.387.216-1.204-.874-1.996-1.434-2.917-.627-.637-1.489-1.45-2.445-1.276m-15.506-.07c-.57.562-.749 1.389-1.014 2.116-.49 1.333.979 2.362.794 3.705.375 1.906-1.948 2.873-1.973 4.672-.202 1.124.858 1.836 1.356 2.718.932.812 2.066 2.18 3.44 1.516.659-.523 1.258-1.117 1.84-1.725.875-1.76 2.583-2.897 3.525-4.614.381-.621.203-1.385-.09-1.998-1.254-.33-1.106-1.88-2.1-2.51-1.091-1.157-1.667-2.707-2.49-4.057-1.068-.31-2.279-.324-3.288.177M30.23 30.62c-.756.374-1.7.704-2.013 1.57-.443 1.361-1.06 2.664-1.38 4.069-.266 1.217-1.446 2.22-1.025 3.556.55 1.699 2.193 2.658 3.57 3.633 1.076.01 1.967-.925 2.853-1.47.683-1.343 1.806-2.364 3.07-3.136.475-1.083 1.462-1.992 1.512-3.222-.34-2.19-2.315-3.484-3.953-4.71-.694-.665-1.804-.708-2.634-.29m22.744-11.613c-1.838.356-3.041 2.61-2.07 4.268 1.246 1.158 2.954 1.884 4.662 1.598 1.343-.255 2.21-1.524 2.426-2.807-.248-1.045-1.161-1.752-1.782-2.58-.79-.971-2.174-.762-3.236-.479m47.874-9.973a4.448 4.448 0 0 0-2.168 2.222c-.35 1.467.46 2.975 1.603 3.852.861.689 1.882 1.687 3.082 1.176 2.739-.932 3.3-5.147 1.004-6.821-1.108-.379-2.38-1.098-3.521-.429M68.724 1.639c1.531-1.094 3.464-1.69 5.34-1.357 1.582.607 2.952 1.713 4.653 2.022.87.028 1.11.955 1.692 1.427 1.546 1.122.73 3.376 1.716 4.841 1.616.802 3.123-.8 3.725-2.173 1.053-2.404 3.91-3.824 6.432-2.977a77.681 77.681 0 0 0 4.667 1.887c1.226.475 2.49-.166 3.747-.112 1.509.034 3.094.089 4.492.712 1.084.866 2.28 1.57 3.398 2.39 1.749.227 3.503-.047 5.226-.34.89-.163 1.557.563 2.14 1.128.533 1.733-1.13 2.82-1.92 4.103-.379 1.602 1.223 2.68 2.514 3.164 1.493.18 2.69-.94 3.977-1.504 2.317-1.52 6.212.772 5.522 3.65-.298 2.359-3.05 3.263-3.56 5.499-.116 1.644 1.463 2.641 1.963 4.076.887 2.228.45 4.68-.098 6.938-.435 1.453.286 2.95-.014 4.432-.335.692-.848 1.28-1.322 1.88-1.613.806-3.43 1.136-5.06 1.902-1.068.496-1.404 1.755-1.613 2.814-.273 1.632 1.281 3.192 2.87 3.172 1.226-.127 2.008-1.21 3.136-1.598 1.152-.443 1.73-1.751 2.988-1.99 2.276-1.106 4.31-3.478 4.05-6.157-.032-.982-.097-1.973.02-2.951.943-1.032 1.656-2.69 3.292-2.656 1.349-.159 1.928 1.34 2.436 2.328.48 1.674.78 3.612 2.18 4.798 1.357 1.166 3.424-.185 4.742 1.072.803.643 1.94.777 2.557 1.664.619.54.417 1.457.347 2.18-2.378 2.072-6.024 2.204-7.963 4.834-.998.677-1.557 1.81-2.639 2.386-.9.49-1.556 1.67-.932 2.621 1.094 1.265 2.657 2 4.03 2.92.71 1.25.033 3.09 1.38 4.02 1.112 1.097 2.742.297 3.483-.82 1.453-1.014 1.226-3.03.656-4.48a5.487 5.487 0 0 1-.429-3.407c1.028-1.02 2.017-2.068 3.047-3.085 1.025-.14 2.16-.53 3.155-.078.544.747 1.276 1.543 1.199 2.536-.016 1.822.141 3.683-.373 5.454.134 1.725.59 3.484.215 5.22-.546 1.532-.139 3.183-.123 4.769.388 1.891 1.314 4.119.07 5.882-1.593 1.79-4.205 2.884-4.787 5.413-.683 1.892 1.608 4.089 3.405 2.929 1.184-.33 1.55-1.566 2.275-2.41.798-.1 1.671-.062 2.367.394.502 1.64-1.04 2.85-.755 4.479.356 1.226.926 2.502.613 3.805-.655.828-1.446 1.604-2.464 1.946-1.145.406-2.561.645-3.184 1.824-.66 2.027.85 3.89.62 5.905-.487 1.424-2.229.8-3.351 1.048-1.307 1.423-3.37 1.841-5.226 1.62-1.708-.08-3.468.028-5.086-.633-1.447-1.62-.355-3.992-1.655-5.635-.612-1.047-2.124-.858-3.015-.321-1.13 1.32-2.46 2.504-3.28 4.052-.4.484-1.125.742-1.155 1.462-.343 1.571-2.299 1.427-3.532 1.45-2.51.244-4.903-.861-6.958-2.203-1.1-.506-2.452-.414-3.401-1.264-1.06-.88-2.494-.712-3.76-.937-1.106-.398-2.048-1.23-3.258-1.33-3.097-.39-6.448-1.01-9.424.247-1.211 1.234-3.031 1.833-3.865 3.451-.331.88-1.072 1.526-1.41 2.398-.29 1.12-.29 2.296-.568 3.424-.498 1.865.2 3.926-.698 5.701-.085 2.564-.648 5.08-.756 7.641.228 3.172-1.384 6.312-.466 9.456.729 1.663.478 3.516.729 5.271.01 1.713.98 3.245.93 4.963-.032 1.926.8 3.716 1.746 5.34.628 1 .625 2.296 1.407 3.212.533.69.687 1.594 1.215 2.291 1.63 1.623 3.131 3.43 5.26 4.417.44 1.146-.3 2.308-1.411 2.648-2.095.174-4.116-.608-6.206-.642-1.943-.275-3.871-.685-5.788-1.118-3.328-.128-6.625-1.153-9.98-.765-2.102.216-4.018 1.163-5.989 1.843-1.172 1.15-2.525 2.135-3.501 3.455-.421 1.11-.875 2.513-2.14 2.893-.994.037-2.144.189-3.01-.406-.5-1.877 1.367-2.89 2.459-4.03.626-1.227 1.157-2.541 1.191-3.942.353-2.942 2.76-4.907 4.03-7.44.316-.909 1.51-1.265 1.48-2.328.61-2.439-.55-5.33 1.188-7.426.81-1.144.683-2.625 1.181-3.886.983-1.805.589-3.948.609-5.916-.201-.089-.603-.267-.802-.352-.317-1.652-1.443-3.083-1.311-4.816.083-3.615.137-7.233.088-10.85-1.003-3.5-2.464-7.09-5.38-9.416-1.045-1.4-2.402-2.496-3.466-3.877-.852-.826-1.943-1.407-2.649-2.384-.563-.879-1.712-1.08-2.148-2.073-2.357-1.192-4.216-3.31-6.83-3.98-1.169-.332-2.167-1.65-3.466-1.06-1.247.585-2.087 2.023-1.93 3.412.013.874.91 1.457.838 2.354.046.607-.085 1.21-.293 1.783-.772-.088-1.889.394-2.377-.422-.739-1.283-1.957-2.157-2.9-3.275-.955-1.133-2.61-1.244-3.96-.915-.942.433-.824 1.603-1.06 2.45-.069 1.09-.995 1.78-1.682 2.514-.79.205-1.684.205-2.321.786-1.465 1.287-3.597 1.353-5.433 1.11-.582-.124-.7-.825-.888-1.289-.361-1.743-1.187-3.33-1.614-5.054-1.32-.844-2.961-1.137-4.424-1.686-.786-.68-1.353-1.683-2.43-1.942-.841-.22-1.43-1.06-2.374-.842-1.629.144-3.118-.612-4.69-.859-1.311-.255-2.684.688-3.941.03-.784-.669-.236-1.817-.044-2.644.198-.843 1.186-.882 1.786-1.3.351-.406.621-.92 1.166-1.098 1.323-.595 2.402-1.748 3.894-1.93 1.427-.158 2.95-.02 4.27-.695 1.773-1.091 4.271-1.284 5.286-3.345.473-1.884-.979-3.504-1.967-4.95-.844-.717-1.415-2.116-2.696-2.023-1.014.293-2.294.42-2.822 1.473-.951 1.37-2.488 2.212-3.316 3.663-1.028.657-2.152 1.713-3.464 1.164-1.848-.442-2.935-2.22-4.735-2.704-1.319-1.659-1.23-4.919 1.042-5.669.874-.882 1.634-1.999 1.788-3.264.027-1.215-.296-2.602.574-3.615a4.84 4.84 0 0 1 2.82-.356c.798.294 1.736 1.104 2.548.382.746-.653 2.06-1.043 2.069-2.215.108-1.13-.734-2.004-1.377-2.823-.945-1.435-1.698-3.152-1.363-4.912.216-1.156.224-2.332.212-3.504-.192-2.425 1.81-4.188 3.121-5.987 1.221-.072 2.823-.502 3.713.597 1.092.406 2.422.78 3.454.015.866-1.14.473-2.827-.493-3.774-.613-.573-.59-1.718-1.514-1.93-.853-.233-1.083-1.268-1.89-1.578-1.149-.448-2.368-.711-3.51-1.184-.848-1.066-.405-2.583-.203-3.805.735-1.952.833-4.517 2.812-5.687.963-.76 2.323-.248 3.322-.957 1.355-1.49 2.961-2.838 3.765-4.742a14.684 14.684 0 0 1 1.747-2.871c1.41-.546 2.152.807 3.096 1.554 1.092 1.4.976 3.202.856 4.873.39 1.98 1.77 4.068 3.945 4.362 1.732-.093 2.97-1.443 4.268-2.43.842-.993.29-2.338-.11-3.398-.564-1.493-1.863-2.49-2.766-3.759-.442-1.497-.732-3.33.432-4.583 1.878-1.353 4.532-1.35 6.1-3.16 2.01-1.817 4.956-1.473 7.193-2.83.994-.596 2.113-.947 3.193-1.353 1.716-.383 3.494-.047 5.236-.244 1.662-.243 3.09.812 4.204 1.922.621.692 1.697.716 2.55.557.936-.732 1.545-1.783 2.326-2.67.955-.757 2.294-.62 3.288-1.302" mask="url(#b)"/>
        </g>
        <path fill="#1D7AB7" d="M98.36 23.488a7.433 7.433 0 0 0-3.191 1.06c-1.288.76-2.351 1.393-3.192 1.896a41.48 41.48 0 0 0-3.946 4.096c-.392.404-1.092 1.49-2.099 3.26l-1.175 1.895-.673 1.593c-.055.151-.42.935-1.09 2.35-.168.607-.252 1.694-.252 3.26 0 .758.026 1.441.084 2.048v2.274l-.17 4.854c0 .253.421 1.945 1.26 5.08.28.909.616 1.97 1.009 3.184.055.202.894 1.112 2.519 2.73.671 1.062 1.203 1.77 1.595 2.122.67.406 1.428.885 2.267 1.44 1.791 1.214 3.078 1.948 3.863 2.2.558.203 1.79.378 3.694.53.391 0 .77.014 1.133.038.364.027.659.051.882.077.224.025.364.037.421.037 1.679 0 2.939-.126 3.778-.379.671-.252 1.428-.656 2.267-1.213.56-.404 1.819-1.162 3.78-2.275.614-.404 1.286-1.162 2.014-2.275 0-.1.168-.328.505-.682.895-1.11 2.293-3.26 4.197-6.445.336-1.061.532-2.071.587-3.032 0-.253.014-.481.043-.683.028-.201.041-.328.041-.38V46.046c0-.177-.013-.442-.04-.797a12.78 12.78 0 0 1-.044-1.06c-.055-.354-.097-.935-.125-1.745a53.995 53.995 0 0 1-.042-1.82c-.112-.2-.28-.732-.503-1.592-.504-2.02-1.457-4.094-2.856-6.217-.616-1.062-2.071-2.73-4.366-5.004-1.007-1.111-1.736-1.87-2.184-2.275-.391-.353-1.342-.683-2.854-.987-.056 0-.197-.024-.42-.075-.224-.05-.365-.1-.42-.151-.784-.252-1.987-.404-3.61-.455l-2.688-.38zM103.061 20c2.573 0 4.786.304 6.634.91 1.286.454 2.825 1.315 4.618 2.578.112.102.923.633 2.435 1.592l.252.227c.168.102.42.292.756.57.335.278.698.594 1.091.947a37.49 37.49 0 0 1 2.184 1.82c.222.202.558.632 1.007 1.288l1.512 2.275c1.343 1.872 2.126 2.983 2.35 3.337.056.05.253.757.588 2.123.392.86.784 1.845 1.177 2.956 0 .81.026 1.442.082 1.896l.252 3.033c0 .253-.084 1.164-.252 2.73l.168 3.412c.056.606-.056 1.517-.334 2.73-.17.606-.84 2.022-2.017 4.245l-1.343 2.427-1.259 1.365-.924.986-1.175 1.29c-.84.908-2.464 2.324-4.872 4.245-4.646 2.68-9.908 4.018-15.785 4.018-3.527 0-6.214-.253-8.062-.758-6.27-1.668-11.028-5.333-14.273-10.994-1.626-2.83-2.771-5.232-3.444-7.203a24.379 24.379 0 0 1-1.091-4.095l-.084-.455c0-.304-.015-.796-.043-1.478a52.853 52.853 0 0 1-.042-2.161c0-.153-.013-.353-.041-.608a6.219 6.219 0 0 1-.042-.681L73 44.339c0-1.87.448-4.018 1.344-6.444.392-1.062 1.428-2.883 3.107-5.46.111-.152 1.148-1.592 3.107-4.321 2.462-2.377 5.542-4.322 9.237-5.84 2.574-1.01 4.283-1.591 5.122-1.742.168-.051 1.343-.153 3.526-.304 2.407-.152 3.947-.228 4.619-.228zM138.115 21c.528 0 .793.341.793 1.022l-.317 1.571.159 2.436v.157c-.053.106-.093.25-.119.432-.028.185-.04.354-.04.51l-.158 2.123c0 .838-.027 1.65-.079 2.436v.314l.158 4.087-.079.785-.318 7.309.318 6.915.158 5.187v.706c-.158 1.206-.237 1.94-.237 2.2v.08c.052.156.08.301.08.432 0 .132.011.289.039.472.026.183.051.38.079.589.026.21.051.444.079.707.026.262.066.55.119.864.052.42.238 1.572.555 3.458a176.72 176.72 0 0 0 1.03 2.514l.397.551 1.03.943c.159.262.238.602.238 1.02 0 .525-.212.84-.634.944-.476.053-1.296.08-2.458.08h-2.694c-.212 0-.476.011-.792.039-.318.025-.583.038-.794.038h-.554l-1.507-.078h-.238c-1.163.104-1.823.157-1.981.157-.741 0-1.11-.236-1.11-.708 0-.418.105-.733.317-.942l1.427-1.572.713-1.022c.422-.785.714-1.386.872-1.807.105-.523.16-1.309.16-2.357l.237-2.28.079-.942.079-.785-.237-3.301V53.69c0-.524-.028-.917-.08-1.179v-.551c0-.367.131-1.78.396-4.244v-.627c-.158-.944-.237-1.467-.237-1.573v-2.986c0-.208.025-1.06.079-2.553.051-1.494.079-2.58.079-3.262 0-.942-.028-1.518-.08-1.73l-.633-2.12c-.053-.786-.211-1.466-.475-2.044-.37-.628-.662-.994-.873-1.099l-1.743-.944c-.213-.051-.318-.42-.318-1.1 0-.732.924-1.544 2.774-2.435.424-.157 1.031-.63 1.824-1.415l1.824-1.1c.316-.209.646-.419.99-.63.343-.208.606-.38.792-.51.185-.13.358-.236.516-.315.158-.078.264-.142.316-.195l.08-.079zM159.862 49.064c-1.515 0-2.925.236-4.23.707-1.565.576-2.768 1.756-3.601 3.534-.576 1.258-.861 3.72-.861 7.384 0 1.572.65 3.327 1.956 5.263.94 1.466 2.429 2.199 4.465 2.199 2.297 0 3.967-.942 5.012-2.828.887-1.622 1.331-3.062 1.331-4.32l-.078-3.692c0-.208.025-.366.078-.471l.157-1.492-.313-2.278c-.106-1.466-.236-2.357-.392-2.671-.783-.89-1.958-1.335-3.524-1.335zm-1.097-5.892c1.462 0 2.663.551 3.603 1.65.47.577.782.864.94.864.364 0 .548-.34.548-1.02 0-.105-.027-.42-.078-.943a13.03 13.03 0 0 1-.08-1.023l.236-2.199.079-1.727c0-.576.052-1.44.156-2.592.052-.472.078-.916.078-1.337 0-.208-.026-.718-.078-1.53a31.138 31.138 0 0 1-.078-1.689V29.19c0-.627-.262-1.282-.783-1.964-.054-.104-.679-.496-1.88-1.178-.262-.156-.392-.496-.392-1.02 0-.523.288-.994.862-1.413.156-.106.549-.342 1.174-.708.784-.21 2.036-.812 3.76-1.807.887-.732 1.748-1.1 2.583-1.1 1.045 0 1.568.472 1.568 1.414 0 .263-.053.656-.157 1.178a28.383 28.383 0 0 0-.548 3.77c-.105.472-.262 1.702-.47 3.692-.053.106-.079.315-.079.629 0 .42.04 1.374.119 2.867.078 1.493.116 2.448.116 2.868 0 .105-.026.51-.078 1.217a23.562 23.562 0 0 0-.079 1.531l-.078 3.22-.078 22.465c0 .683.078 1.206.235 1.572l.704 1.1.627 1.415c.522.838.783 1.44.783 1.806 0 .786-.627 1.178-1.879 1.178-.157 0-.758-.052-1.801-.157-.105-.054-.288-.079-.549-.079-.104 0-.352.012-.744.04-.39.025-.64.04-.744.04-1.045 0-1.697-.131-1.958-.393l-.705-1.336c-.052-.052-.156-.08-.312-.08-.262 0-.967.315-2.115.944-.94.472-1.515.706-1.723.706l-1.41.08-1.722.313c-.523 0-1.36-.183-2.507-.55-1.253-.366-2.114-.757-2.583-1.178-.94-.785-1.673-1.622-2.193-2.512-.89-1.259-1.567-2.437-2.036-3.536-.68-1.308-1.019-2.801-1.019-4.478 0-5.969 1.253-10.262 3.76-12.882 1.252-1.36 3.366-2.382 6.343-3.063l2.662-.629zM188.724 45.784c-1.42 0-2.655.541-3.706 1.624-.683.723-1.024 1.47-1.024 2.243 0 .515.236.851.71 1.006.839.308 3.258.463 7.253.463 1.366 0 2.05-.387 2.05-1.16 0-.978-.552-1.984-1.655-3.015-.896-.774-2.104-1.161-3.628-1.161M189.907 43c2.944 0 5.73 1.392 8.359 4.176 1.156 1.29 1.734 2.501 1.734 3.635 0 1.806-.815 2.706-2.444 2.706-.159 0-.5-.026-1.026-.076a14.48 14.48 0 0 0-1.024-.078c-.842 0-1.552.027-2.13.078a86.87 86.87 0 0 1-2.207.154H189.986c-.737 0-1.262-.026-1.577-.078-1.526-.154-2.473-.23-2.839-.23-1.053 0-1.946.335-2.681 1.003-.369.31-.552.827-.552 1.548 0 .413.026.85.078 1.314.263 2.011.446 3.146.553 3.403.42.825 1.445 1.907 3.076 3.249 1.207 1.031 2.154 1.65 2.837 1.855.999.31 1.893.464 2.682.464.998 0 2.548-.232 4.652-.696a8.311 8.311 0 0 0 2.05-.774c.21-.102.368-.154.474-.154.366 0 .551.206.551.619 0 .258-.105.593-.315 1.005l-.078.077c0 .052-.015.13-.04.233-.027.104-.039.205-.039.309-.316 1.031-.763 1.83-1.34 2.396-.107.105-.474.388-1.105.851a12.785 12.785 0 0 1-2.444 1.392c-1 .413-2.551.619-4.653.619-.58 0-1.577-.232-2.996-.697-1.316-.513-2-.797-2.05-.85-.58-.36-1.316-1.132-2.208-2.319-.527-.67-1.498-2.165-2.917-4.485-.739-2.166-1.105-3.737-1.105-4.718 0-.05.157-1.056.474-3.016.577-3.402 1.365-5.67 2.365-6.806.577-.824 1.445-1.984 2.602-3.48C185.543 43.878 187.7 43 189.907 43"/>
        <g transform="translate(0 76)">
            <mask id="d" fill="#fff">
                <use xlink:href="#c"/>
            </mask>
            <path fill="#1D7AB7" d="M12.506 48.608v4.477c0 1.298.458 3.308 1.378 6.033.282.91 1.836 2.335 4.662 4.281 1.413 1.104 2.12 1.915 2.12 2.433 0 .714-.884 1.071-2.649 1.071-.143 0-1.555-.066-4.239-.196-1.484 0-3.039-.032-4.663-.095-4.594-.066-7.244-.196-7.949-.39C.388 65.897 0 65.344 0 64.566c0-.388.07-.647.212-.777.212-.26 1.024-.747 2.437-1.461 2.825-1.363 4.452-4.41 4.876-9.148-.143-2.074-.037-6.746.317-14.012l.106-1.751.531-9.245c0-1.49-.284-3.73-.848-6.714 0-.129-.072-3.47-.212-10.023-.143-1.947-.46-3.243-.954-3.892C6.182 7.089 4.7 6.18 2.014 4.818.81 4.106.212 3.327.212 2.483c0-.907.388-1.426 1.165-1.556.494 0 1.13-.033 1.908-.099h2.65c.14 0 .387.017.742.049.353.034.848.065 1.484.098.635.033 1.2.049 1.695.049.494.065.918.097 1.273.097 1.34 0 3.248-.13 5.722-.389a9.194 9.194 0 0 1 1.378-.098c1.129 0 1.872.455 2.225 1.363 0 .26.142 1.201.425 2.82.14 2.531.494 4.998 1.06 7.397.988 3.828 3.32 9.18 6.995 16.056 0 .066.034.195.106.39.07.194.174.454.317.778.141.325.282.68.424 1.071.705 2.14 1.2 3.47 1.484 3.99.281.649.705 1.751 1.272 3.308 0 .065.99 1.59 2.967 4.574.917 1.427 1.412 2.4 1.484 2.918.28.845.671 1.265 1.166 1.265.705 0 1.696-.875 2.967-2.626.07-.064.282-.356.637-.876.916-1.168 2.331-3.99 4.239-8.467l.635-1.361.954-2.336 1.908-4.379 2.65-7.006 1.695-4.769 1.59-3.698a226.305 226.305 0 0 0 2.332-5.935c.14-.259.28-.633.423-1.12.142-.487.282-.827.425-1.022.28-.779.742-1.296 1.377-1.556 1.2-.324 3.248-.486 6.147-.486.848 0 1.765.064 2.756.194h.318l3.285-.097c.494-.065 1.166.324 2.014 1.166.353.456.53.814.53 1.071 0 .585-.212.942-.636 1.07l-1.908.78c-1.13.389-2.225 1.59-3.285 3.6-.283.584-.495 1.818-.635 3.698-.213 2.012-.356 4.67-.425 7.98 0 2.53.035 4.51.106 5.936 0 .649.017 1.28.053 1.897.035.617.07 1.088.107 1.41.034.327.052.521.052.584 0 4.866-.036 7.72-.106 8.564v4.379l.106 7.688c0 .26-.018.86-.052 1.8a65.844 65.844 0 0 0-.054 1.702c0 .52.247 1.654.742 3.407.777 2.53 1.412 3.925 1.908 4.184l2.65 1.46c.423.325.635.811.635 1.459 0 .52-.125.925-.371 1.217-.248.291-.62.404-1.113.34l-2.226-.195h-5.511c-.566.065-1.059.098-1.483.098l-6.677-.098c-.284 0-1.026.016-2.226.049-1.203.031-1.979.049-2.331.049-1.414 0-2.12-.325-2.12-.974 0-.194.017-.355.052-.486.036-.129.123-.275.266-.437.14-.162.28-.292.424-.39.141-.097.406-.275.795-.535.388-.26.759-.52 1.112-.778 2.544-1.687 4.098-3.05 4.664-4.087a8.135 8.135 0 0 0 .635-1.947c-.142-1.037-.035-3.761.319-8.174l.106-1.654.106-1.46c.07-.258.106-.681.106-1.265 0-.584.034-1.037.105-1.362l.212-1.07c0-.26-.106-1.037-.317-2.336l-.106-3.503c0-1.427-.106-2.853-.318-4.281 0-.39-.019-.746-.054-1.071-.035-.324-.09-.55-.159-.682v-.291c0-.52.07-1.492.213-2.92.212-2.01.318-3.47.318-4.378 0-.844-.284-1.267-.848-1.267-.495 0-.884.39-1.166 1.17l-.424 1.069c-.424.91-.742 1.655-.954 2.239-.496 1.362-.919 2.238-1.271 2.627l-1.379 1.654c-.283.194-.954 1.817-2.013 4.865-1.202 2.207-2.086 3.958-2.65 5.255-.142.584-.99 3.277-2.544 8.076-.495.91-1.13 2.045-1.906 3.407-.496.973-1.273 2.985-2.333 6.034l-1.801 3.502c-.213.52-.885 1.98-2.014 4.38-.282.39-.602.583-.954.583-.496 0-.991-.42-1.484-1.265-.283-.453-.848-2.075-1.695-4.866-.213-.647-1.31-3.079-3.285-7.297-.991-2.27-2.051-4.573-3.18-6.91-.567-.973-1.627-2.724-3.18-5.254-1.202-1.881-2.296-4.54-3.286-7.98-.777-2.464-2.297-5.578-4.557-9.342a3.208 3.208 0 0 1-.423-.486l-.107-.291c-.707-1.427-1.201-2.142-1.483-2.142-.778 0-1.097.39-.954 1.168l.212 4.67-.53 4.282-.106 3.698c.07.973.106 1.947.106 2.92 0 .13-.019.47-.054 1.021-.035.552-.105 1.493-.21 2.822a187.02 187.02 0 0 0-.266 3.747c.353 2.79.53 4.217.53 4.281" mask="url(#d)"/>
        </g>
        <path fill="#1D7AB7" d="M86.21 94c1.24 0 2.356.396 3.348 1.188 1.055.793 1.582 1.848 1.582 3.167 0 .926-.466 1.98-1.396 3.169-.869 1.188-1.737 1.781-2.605 1.781-.744 0-1.829-.46-3.256-1.386-.682-.263-1.054-.856-1.116-1.781-.186-1.32-.279-2.013-.279-2.08 0-.725.34-1.648 1.023-2.771.56-.857 1.457-1.287 2.699-1.287m2.976 12.67c.868 0 1.303.694 1.303 2.08 0 .462-.093 1.583-.28 3.366l.093.89v1.188c0 .332-.063 1.75-.185 4.257-.126 2.376-.187 3.728-.187 4.058l.28 2.574v7.523l.186 1.486c.06 1.979.495 3.53 1.301 4.652.868 1.452 1.303 2.41 1.303 2.87 0 .925-.93 1.386-2.79 1.386-.187 0-1.024-.067-2.512-.198-.435-.067-1.055-.099-1.86-.099h-.652l-3.07.297c-.744-.067-1.116-.593-1.116-1.584 0-.395.03-.626.093-.693.309-.262.868-.956 1.674-2.078.56-.726.776-1.155.652-1.287v-2.97l.372-2.87.092-6.93c0-.199-.092-1.32-.279-3.366v-.198c0-.328.062-.89.187-1.683l.092-1.088c.062-.198.109-.528.14-.99.03-.462.047-.792.047-.99 0-.462-.187-.923-.559-1.387-.248-.262-.962-.856-2.139-1.781-.125-.262-.187-.593-.187-.989 0-.792.528-1.451 1.582-1.98 1.116-.528 1.922-.99 2.42-1.386 2.169-1.386 3.501-2.08 3.999-2.08M100.74 129.354c.244 0 .554.357.923 1.07.678 1.557 2.065 3.179 4.16 4.864.74.584 1.602 1.07 2.589 1.459.554.194.954.293 1.2.293h2.404c1.356-.26 2.465-.908 3.329-1.947.739-.972 1.109-2.204 1.109-3.697 0-2.334-1.264-4.149-3.79-5.448l-2.404-1.264c-.184-.195-1.449-1.102-3.79-2.723-.802-.453-1.88-1.232-3.235-2.335-1.418-1.686-2.126-3.468-2.126-5.35 0-2.141.585-3.99 1.756-5.545 1.17-1.558 2.834-2.66 4.991-3.309.617-.128 1.788-.194 3.513-.194l2.126-.097c.37 0 .8.065 1.294.194.186.066.431.163.74.292.307.131.493.195.555.195l3.42-.778c.43-.195.707.454.832 1.945.06.584.092 1.264.092 2.043 0 .52-.031 1.265-.092 2.238l-.092 1.166c0 1.752-.278 2.627-.833 2.627-.617 0-1.664-1.393-3.143-4.183-1.171-2.398-2.62-3.598-4.344-3.598-1.603 0-2.773.713-3.512 2.139-.495.909-.74 1.785-.74 2.627 0 1.037.523 2.206 1.571 3.501.37.52.8.876 1.295 1.07.307.132 1.2.456 2.68.975l1.849 1.069c.924.389 1.602.746 2.034 1.07 1.848 1.622 3.08 2.951 3.697 3.989.8 1.297 1.202 3.08 1.202 5.35 0 1.817-.588 3.925-1.756 6.323-.864 1.687-1.789 2.918-2.775 3.697-.923.649-2.31 1.299-4.158 1.946-1.357.453-2.436.68-3.235.68-.74 0-1.572-.16-2.497-.485l-1.94-1.168c-.063-.064-.217-.097-.464-.097-.43 0-.738.163-.923.486l-.833 1.264c-.184.195-.646.292-1.385.292-.618 0-1.095-.146-1.433-.437-.34-.292-.48-.696-.417-1.216v-3.113c0-.389-.03-.81-.092-1.265-.062-.194-.092-1.296-.092-3.307v-1.655c0-1.101.245-1.653.74-1.653M128.66 106.65l1.938.19c.184.065.428.096.737.096.798 0 1.352-.573 1.66-1.72 0-1.082.031-2.484.092-4.205 0-.763.953-1.654 2.86-2.673 1.599-.892 2.49-1.338 2.674-1.338.984 0 1.476.51 1.476 1.528 0 .191-.031.382-.092.573-.369 1.02-.553 1.689-.553 2.007.37 3.503.676 5.255.922 5.255l2.214-.192.646.097c.982.127 1.567.254 1.753.381.675.382 1.013 1.052 1.013 2.007 0 1.084-.308 1.752-.922 2.006l-.37.095c-.246 0-.66.048-1.243.144-.587.095-1.186.176-1.8.238-1.353.191-2.029.925-2.029 2.198 0 .13.014.525.047 1.195.03.668.045 1.13.045 1.385 0 .32-.092 1.24-.276 2.77 0 .256-.062 1.593-.185 4.013a78.894 78.894 0 0 0-.092 4.013c0 5.605.706 8.407 2.122 8.407l3.781-.573c.122 0 .276.256.461.765.185.51.277.893.277 1.146 0 .893-.308 1.688-.923 2.388-.246.256-.83.638-1.752 1.147-.8.765-1.323 1.211-1.567 1.338-.679.445-1.6.669-2.768.669-2.275 0-3.998-.796-5.165-2.389-.554-.636-.83-1.21-.83-1.72l.092-4.681v-.383c-.247-1.463-.369-2.516-.369-3.153 0-.19.184-1.337.553-3.438.06-.191.093-.51.093-.956l-.185-2.484c0-.827-.031-1.783-.092-2.866 0-.191-.015-.51-.046-.956-.031-.445-.078-.764-.139-.956-.123-.636-.184-.985-.184-1.05l.184-1.242c.185-1.274.277-2.229.277-2.867 0-1.209-.677-1.91-2.03-2.102-2.09-.318-3.258-.73-3.504-1.242-.308-.445-.461-.826-.461-1.146 0-1.083.554-1.656 1.66-1.72M158.21 94c1.24 0 2.356.396 3.348 1.188 1.055.793 1.582 1.848 1.582 3.167 0 .926-.465 1.98-1.396 3.169-.869 1.188-1.737 1.781-2.604 1.781-.744 0-1.83-.46-3.257-1.386-.682-.263-1.054-.856-1.116-1.781-.185-1.32-.279-2.013-.279-2.08 0-.725.34-1.648 1.025-2.771.557-.857 1.455-1.287 2.697-1.287m2.976 12.67c.868 0 1.303.694 1.303 2.08 0 .462-.093 1.583-.28 3.366l.094.89v1.188c0 .332-.062 1.75-.186 4.257-.126 2.376-.186 3.728-.186 4.058l.278 2.574v7.523l.187 1.486c.061 1.979.496 3.53 1.303 4.652.866 1.452 1.301 2.41 1.301 2.87 0 .925-.93 1.386-2.79 1.386-.186 0-1.024-.067-2.512-.198-.435-.067-1.055-.099-1.86-.099h-.652l-3.07.297c-.744-.067-1.116-.593-1.116-1.584 0-.395.031-.626.094-.693.31-.262.868-.956 1.673-2.078.56-.726.776-1.155.652-1.287v-2.97l.372-2.87.092-6.93c0-.199-.092-1.32-.279-3.366v-.198c0-.328.062-.89.187-1.683l.092-1.088c.062-.198.109-.528.14-.99.031-.462.047-.792.047-.99 0-.462-.187-.923-.557-1.387-.25-.262-.964-.856-2.141-1.781-.124-.262-.185-.593-.185-.989 0-.792.526-1.451 1.58-1.98 1.116-.528 1.922-.99 2.42-1.386 2.169-1.386 3.503-2.08 3.999-2.08M183.09 106.032c2.006-.064 4.256-.032 6.747.096 2.421.193 4.428 1.254 6.02 3.183.76 1.092 1.143 2.153 1.143 3.18 0 .772-.296 1.464-.883 2.074-.59.612-1.264.917-2.025.917-1.868 0-3.91-1.254-6.123-3.761-.97-1.158-1.87-1.768-2.7-1.832-.484-.064-1.868-.16-4.152-.289-1.384.064-2.838 1.125-4.36 3.182-1.107 1.414-1.66 4.05-1.66 7.907 0 .129.017.402.052.82.034.418.052.691.052.819v2.507c0 .13.415.965 1.245 2.508.276.515.536 1.013.78 1.494.24.482.43.853.57 1.11l.104.288a26.737 26.737 0 0 0 2.803 4.628c.482.58 1.349 1.254 2.594 2.026 1.314.77 2.318 1.126 3.01 1.061h1.35c2.422-.129 4.497-.58 6.228-1.351.898-.513 1.487-.771 1.765-.771.345 0 .519.161.519.482 0 .323-.415.772-1.246 1.35-3.876 2.894-6.332 4.34-7.37 4.34-4.221 0-7.37-.42-9.445-1.254-1.04-.449-2.32-1.22-3.84-2.314-1.04-.772-2.114-1.863-3.219-3.278-.97-1.158-1.731-2.315-2.284-3.472-.277-.9-.555-2.154-.83-3.761-.624-2.7-.935-4.436-.935-5.208 0-4.112 1.454-7.713 4.36-10.798 1.592-1.737 2.975-2.957 4.152-3.665 2.284-1.35 4.81-2.09 7.577-2.218M208.333 97.818v1.862c.124.85.124 2.025 0 3.529a61.07 61.07 0 0 0-.092 3.43c0 1.046.092 2.352.279 3.92.122.784.185 1.242.185 1.373 0 .458-.185 1.568-.557 3.332-.249.979-.371 1.96-.371 2.94 0 1.372.371 2.059 1.114 2.059.372 0 .803-.197 1.3-.589l1.486-1.372c1.24-.719 1.951-1.176 2.138-1.372a22.202 22.202 0 0 0 1.579-1.862c1.795-1.306 3.312-2.809 4.552-4.51.06-.783.432-1.861 1.114-3.233.372-.521.743-.783 1.116-.783l2.414.098c.187 0 .62-.032 1.301-.098.68-.065 1.115-.098 1.301-.098 2.414 0 3.623.391 3.623 1.175 0 .457-.62 1.046-1.858 1.765-.125.066-1.426.979-3.901 2.744l-2.88 1.666c-1.487.915-2.572 1.666-3.252 2.253-1.735 1.372-2.601 2.517-2.601 3.431 0 .588.928 1.896 2.787 3.92.246.263.96 1.569 2.137 3.921.495.98 1.423 2.32 2.785 4.019 1.674 2.81 2.634 4.378 2.881 4.703.31.458 1.207 1.31 2.693 2.549.93.655 1.394 1.57 1.394 2.744 0 .98-.464 1.471-1.394 1.471-.495 0-1.238-.034-2.229-.099h-.65c-.928 0-1.828.032-2.695.1-.432.063-.928.096-1.486.096l-2.693.098c-1.362-.065-2.044-.455-2.044-1.176 0-.522.216-1.013.65-1.47.681-.717 1.023-1.24 1.023-1.568 0-.13-.094-.359-.28-.686-.682-1.111-1.207-2.548-1.58-4.312-.06-.327-.495-.914-1.299-1.764-.063-.197-.342-.718-.837-1.569-.185-.456-.836-1.11-1.95-1.96-.497-.326-.868-.718-1.115-1.176-1.486-2.417-2.57-3.627-3.25-3.627-.559 0-.838.85-.838 2.549 0 1.111-.155 2.32-.464 3.627l.28 4.214c0 .13-.018.426-.048.882-.032.457-.047.752-.047.882 0 1.372.712 2.908 2.137 4.607.682.72 1.022 1.274 1.022 1.666 0 .522-.464.783-1.394.783-.556 0-1.486-.196-2.787-.587-.185-.064-.464-.098-.835-.098-.31 0-1.177.132-2.6.391a62.51 62.51 0 0 0-3.438.098h-2.044c-.743.13-1.115-.098-1.115-.685 0-.393.124-.719.372-.98l.093-.099c.06 0 .153-.048.278-.146.124-.098.263-.212.418-.343.154-.131.356-.294.604-.491.246-.196.495-.392.743-.587.68-.523 1.053-1.308 1.115-2.353l.558-3.92.371-2.058c0-.065.014-.212.046-.442.031-.228.061-.57.094-1.028.03-.457.045-.883.045-1.274.124-1.503.155-2.45.094-2.844l-.094-1.861.094-1.862c0-.197-.016-.572-.047-1.128a26.75 26.75 0 0 1-.047-1.029v-1.372c.061-.392.094-1.666.094-3.823l.093-2.548c0-1.436-.032-2.678-.093-3.723v-5.49l.093-2.352c0-.26.014-.54.047-.833.03-.294.045-.57.045-.832v-.294c0-.393-.062-1.374-.185-2.941-.063-2.548-.341-4.573-.837-6.076-.31-.719-.589-1.208-.835-1.47-.743-.393-1.363-.817-1.858-1.275-.186-.196-.279-.391-.279-.588 0-.392.804-.849 2.416-1.373.123-.063 1.702-.783 4.737-2.155.99-.457 2.074-1.306 3.25-2.548.434-.59.9-.883 1.394-.883.558 0 .837.426.837 1.274 0 .851-.217 1.732-.65 2.647-.743 1.765-1.177 2.974-1.301 3.626a50.286 50.286 0 0 0-.464 6.763c0 1.307.03 2.81.092 4.508M247.433 76l1.926.195 1.014.097c1.013.066 2.6.163 4.764.292.946.065 1.757.098 2.434.098.742 0 2.23-.13 4.46-.39l1.824.194c1.081-.194 1.79-.291 2.129-.291 2.365 0 3.55.52 3.55 1.558 0 .454-.61 1.071-1.826 1.85-2.974 2.08-4.394 3.637-4.259 4.674l.102 1.266c0 2.402.102 4.026.304 4.869.338.78.71 1.85 1.116 3.214l1.52 4.382 1.521 3.02.811 2.63c1.42 3.115 2.264 5.097 2.534 5.94.136.325.338 1.526.608 3.602 0 .261.338 1.17 1.015 2.728l1.418 3.31 1.115 2.435c.811 1.884 1.384 2.824 1.724 2.824.405 0 1.047-1.072 1.925-3.213.135-.325.27-.666.406-1.023.135-.356.203-.568.203-.633.27-.713.608-1.526 1.013-2.434.204-.65.491-1.657.863-3.02.37-1.362.659-2.336.861-2.921l1.521-4.48c.067-.259.743-1.525 2.027-3.798l.913-2.435 1.622-3.213.912-2.824 1.014-2.337.405-2.142.609-2.143c.608-1.948.911-3.246.911-3.895 0-.714-.946-1.786-2.837-3.215-1.69-1.232-2.535-2.368-2.535-3.408 0-.714.506-1.071 1.521-1.071.811 0 1.384.034 1.724.097 3.04.39 4.865.585 5.473.585.338 0 .642-.033.913-.097 2.702-.325 4.493-.488 5.373-.488 1.283 0 1.926.65 1.926 1.949a2.98 2.98 0 0 1-.508 1.655c-.135.13-.777.389-1.925.778-.88.262-1.724 1.106-2.535 2.532-.136.196-.911 2.014-2.33 5.454l-2.434 4.87-1.826 5.16c-.878 1.819-1.858 4.221-2.94 7.207a68.201 68.201 0 0 1-2.23 5.94l-1.114 2.63c-.069.194-1.42 3.474-4.055 9.836l-1.824 4.479-1.622 4.479c-1.217 3.572-2.3 6.299-3.245 8.181-.609.973-1.25 1.461-1.925 1.461-.475 0-.847-.196-1.116-.585-.068-.066-.406-1.33-1.014-3.798-.473-1.816-1.353-3.993-2.636-6.524l-.608-2.143-.81-2.532-.71-2.336-1.825-5.941c-.542-2.402-.913-3.83-1.115-4.285-.069-.194-1.556-3.57-4.461-10.128-.068-.258-.339-1.17-.81-2.727-.947-3.375-2.401-7.173-4.36-11.393-.202-.39-1.114-2.012-2.736-4.87a74.66 74.66 0 0 0-2.231-3.602c-.136-.13-1.115-.942-2.94-2.436-.745-.584-1.115-1.2-1.115-1.85 0-1.168.811-1.784 2.433-1.85M303.21 93c1.24 0 2.356.396 3.348 1.188 1.055.791 1.58 1.848 1.58 3.167 0 .925-.463 1.98-1.394 3.168-.869 1.188-1.737 1.78-2.604 1.78-.744 0-1.83-.459-3.257-1.385-.682-.262-1.054-.857-1.116-1.781-.185-1.32-.279-2.013-.279-2.078 0-.726.34-1.65 1.023-2.772.56-.858 1.457-1.287 2.699-1.287m2.976 12.67c.868 0 1.303.694 1.303 2.08 0 .462-.093 1.583-.28 3.365l.094.891v1.188c0 .33-.062 1.748-.186 4.257-.126 2.374-.186 3.728-.186 4.058l.278 2.573v7.524l.187 1.484c.061 1.98.496 3.532 1.303 4.652.866 1.453 1.301 2.411 1.301 2.87 0 .927-.93 1.388-2.79 1.388-.186 0-1.024-.067-2.511-.198-.435-.067-1.056-.1-1.861-.1h-.652l-3.07.298c-.744-.067-1.116-.595-1.116-1.585 0-.396.031-.625.094-.692.31-.263.868-.956 1.673-2.08.56-.724.776-1.153.652-1.287v-2.969l.372-2.87.092-6.93c0-.198-.092-1.319-.279-3.365v-.199c0-.329.062-.89.187-1.682l.092-1.09c.062-.196.109-.526.14-.988.031-.462.047-.793.047-.99 0-.462-.187-.924-.559-1.387-.248-.263-.962-.856-2.139-1.781-.125-.263-.185-.593-.185-.99 0-.793.526-1.452 1.58-1.98 1.116-.527 1.922-.99 2.42-1.385 2.169-1.386 3.501-2.08 3.999-2.08M324.518 78c.61 0 .915.429.915 1.282l-.366 1.972.183 3.058v.197a1.884 1.884 0 0 0-.136.542 4.464 4.464 0 0 0-.047.641l-.183 2.662c0 1.053-.03 2.071-.091 3.058v.394l.182 5.128-.091.986-.366 9.172.366 8.677.183 6.508v.888c-.183 1.513-.274 2.433-.274 2.76v.1c.06.198.09.379.09.542 0 .164.016.361.047.592.03.231.06.478.091.738.03.265.06.56.093.888.03.33.074.691.136 1.085.06.528.274 1.973.64 4.34.488 1.316.884 2.366 1.19 3.156l.457.69 1.188 1.183c.184.33.275.756.275 1.282 0 .658-.244 1.052-.732 1.183-.549.066-1.494.099-2.835.099H322.323c-.244 0-.549.016-.915.05-.366.031-.671.048-.914.048h-.64l-1.738-.098h-.275c-1.342.13-2.103.197-2.285.197-.855 0-1.281-.296-1.281-.888 0-.525.12-.92.365-1.182l1.647-1.973.823-1.282c.486-.985.823-1.742 1.006-2.267.12-.658.182-1.643.182-2.96l.275-2.86.091-1.183.093-.985-.275-4.143v-3.254c0-.656-.032-1.149-.091-1.48v-.689c0-.46.151-2.235.457-5.325V110.74c-.184-1.184-.275-1.84-.275-1.972v-3.748c0-.262.03-1.331.091-3.204.06-1.875.093-3.238.093-4.094 0-1.182-.033-1.905-.093-2.169l-.731-2.662c-.062-.987-.244-1.84-.55-2.564-.427-.789-.762-1.248-1.005-1.381l-2.012-1.184c-.245-.063-.366-.525-.366-1.38 0-.92 1.067-1.938 3.201-3.057.488-.197 1.19-.79 2.104-1.774l2.103-1.381c.366-.262.746-.526 1.144-.79.395-.262.7-.476.915-.64.213-.164.41-.297.594-.395.182-.099.304-.18.366-.246l.091-.099zM344.52 78c.608 0 .913.429.913 1.282l-.366 1.972.183 3.058v.197a1.884 1.884 0 0 0-.136.542 4.656 4.656 0 0 0-.047.641l-.183 2.662c0 1.053-.03 2.071-.09 3.058v.394l.181 5.128-.091.986-.365 9.172.365 8.677.183 6.508v.888c-.183 1.513-.273 2.433-.273 2.76v.1c.06.198.09.379.09.542 0 .164.015.361.046.592l.093.738c.029.265.059.56.09.888.03.33.075.691.137 1.085.06.528.274 1.973.64 4.34.488 1.316.884 2.366 1.19 3.156l.458.69 1.187 1.183c.184.33.275.756.275 1.282 0 .658-.244 1.052-.73 1.183-.55.066-1.496.099-2.837.099h-3.11c-.244 0-.549.016-.915.05-.364.031-.67.048-.914.048h-.64l-1.738-.098h-.275c-1.34.13-2.103.197-2.285.197-.855 0-1.281-.296-1.281-.888 0-.525.12-.92.365-1.182l1.647-1.973.823-1.282c.488-.985.823-1.742 1.006-2.267.12-.658.182-1.643.182-2.96l.275-2.86.091-1.183.093-.985-.275-4.143v-3.254c0-.656-.032-1.149-.091-1.48v-.689c0-.46.151-2.235.457-5.325V110.74c-.184-1.184-.275-1.84-.275-1.972v-3.748c0-.262.03-1.331.091-3.204.06-1.875.093-3.238.093-4.094 0-1.182-.033-1.905-.093-2.169l-.731-2.662c-.062-.987-.244-1.84-.55-2.564-.426-.789-.76-1.248-1.005-1.381l-2.012-1.184c-.244-.063-.366-.525-.366-1.38 0-.92 1.067-1.938 3.202-3.057.487-.197 1.189-.79 2.104-1.774l2.102-1.381c.366-.262.746-.526 1.145-.79.395-.262.7-.476.914-.64a4.47 4.47 0 0 1 .595-.395c.183-.099.303-.18.366-.246l.091-.099zM370.844 120.702c-.562 0-1.5.574-2.813 1.723-.125.064-.375.288-.75.67-1.312 1.023-2.25 1.82-2.813 2.394-1.626 2.044-2.436 3.99-2.436 5.84 0 1.34.468 2.33 1.405 2.97 1.438 1.084 2.907 1.626 4.407 1.626 1.999 0 3.155-1.627 3.468-4.883 0-.191.049-.766.142-1.723.094-.958.201-1.882.328-2.776.062-.447.093-.862.093-1.245l-.093-1.915a72.576 72.576 0 0 1-.188-1.915c-.125-.51-.375-.766-.75-.766m-3.095-11.106h-1.218c-.936.128-1.5.287-1.688.479l-.187.19c-.063.13-.188.288-.374.48a3.754 3.754 0 0 0-.47.574c-.375.384-.97.862-1.78 1.436-.876.639-1.501.958-1.876.958-1.125 0-1.687-.733-1.687-2.202 0-1.467.624-2.743 1.875-3.83.375-.383 1.373-.829 3-1.34l1.124-.575c1-.51 1.844-.766 2.532-.766 2.312 0 3.969.191 4.969.575 1.5.51 3.03 1.948 4.594 4.308.686 1.086 1.031 2.426 1.031 4.021 0 .065-.016.304-.046.719-.033.415-.047.75-.047 1.004l-.094 12.35c0 1.088.032 1.98.094 2.683.188.894.75 1.914 1.688 3.063.436.575.843.894 1.218.958l1.406.574a.656.656 0 0 1 .187.478c0 .384-.5 1.214-1.498 2.49-1.44 1.852-2.878 2.777-4.314 2.777-.5 0-1.125-.16-1.875-.48-.126-.063-.626-.445-1.5-1.149-.626-.509-1.094-.765-1.406-.765-.063 0-.422.208-1.079.622-.656.416-1.579.814-2.765 1.197-1.188.382-2.501.575-3.938.575-2.75 0-5.156-1.053-7.22-3.16-.499-.51-.813-1.245-.937-2.203a1.662 1.662 0 0 1-.14-.478 3.03 3.03 0 0 1-.048-.478c-.062-.767-.155-1.308-.28-1.628 0-.254.029-.48.093-.67l.187-2.777a7.11 7.11 0 0 1 1.125-3.16c1.251-1.658 3.314-3.286 6.189-4.882.061 0 .248-.063.561-.191.313-.128.766-.336 1.36-.623a21.776 21.776 0 0 1 1.923-.813c1.561-.576 2.748-1.277 3.562-2.107.937-1.02 1.407-2.011 1.407-2.968 0-.575-.501-1.69-1.5-3.351-.75-1.15-1.47-1.787-2.158-1.915M398.522 114.354c-1.739 0-3.406.585-5 1.752-.073.066-.544.65-1.412 1.753-1.596 2.012-2.392 3.538-2.392 4.575 0 2.402.219 3.99.653 4.77 0 .195.396.941 1.195 2.238 2.028 3.376 3.948 5.063 5.76 5.063 4.493 0 7.427-.909 8.805-2.726.07-.258.47-.908 1.195-1.946.871-1.56 1.305-2.759 1.305-3.603 0-2.53-.508-5.062-1.522-7.593-.364-.973-1.088-1.816-2.173-2.531a88.54 88.54 0 0 0-2.717-.778c-1.958-.648-3.19-.974-3.697-.974m4.456 37.575c-.146 0-.562.049-1.249.146-.69.097-1.179.146-1.468.146h-.435c-.217-.064-.634-.146-1.249-.243a33.083 33.083 0 0 0-1.903-.243c-1.16.323-2.32 1.07-3.479 2.238a9.284 9.284 0 0 1-.976.78c-2.175 1.621-3.263 3.893-3.263 6.813 0 2.207.58 4.056 1.74 5.549 1.523 2.206 4.456 3.31 8.804 3.31 5.724 0 10.145-1.656 13.262-4.965.868-.91 1.304-2.272 1.304-4.088 0-1.623-.582-3.083-1.74-4.38-1.16-1.234-2.934-2.467-5.325-3.7l-1.087-.583c-1.161-.52-2.14-.78-2.936-.78M402.544 109c.723 0 1.522.066 2.392.195.94.39 2.353 1.007 4.239 1.85.143.066.47.097.978.097.143 0 .615-.342 1.412-1.022.798-.681 1.522-1.023 2.174-1.023 1.014 0 1.884.342 2.61 1.023.723.68 1.086 1.444 1.086 2.288 0 .649-.181 1.298-.543 1.946-.074.066-.182.18-.327.34-.144.163-.38.39-.705.682-.327.292-.637.601-.924.926-.217.194-.327.68-.327 1.46 0 .52.072 1.232.218 2.14l.326 2.629v2.921c0 1.752-.11 3.05-.326 3.894-.291 1.233-1.124 2.596-2.501 4.089-.507.583-1.412 1.264-2.717 2.043-1.595 1.104-2.827 1.818-3.695 2.141-.29 0-1.196.132-2.718.39-.726.065-1.431.146-2.12.244-.69.097-1.177.145-1.467.145l-.544.098h-.977c-3.262-.195-5.147-.292-5.653-.292-1.45 0-2.173.488-2.173 1.46 0 1.3 1.413 2.142 4.238 2.531l5.87.68 5.651-.096c.147 0 1.015.423 2.61 1.265 1.81.585 3.332 1.266 4.565 2.045 1.666.973 3.152 2.66 4.456 5.062.29.778.398 2.466.327 5.061l-.11 1.558v1.168l-.107 1.656c-.073 2.076-.436 3.828-1.087 5.257-1.088 2.075-2.899 3.762-5.435 5.062-.146.063-.617.323-1.414.778-3.624 2.205-7.103 3.309-10.434 3.309-4.06 0-7.211-.618-9.455-1.85-2.176-1.167-3.771-2.304-4.783-3.407-2.104-2.4-3.154-4.706-3.154-6.911 0-1.883.145-3.894.434-6.035.29-2.14 1.485-3.894 3.588-5.257 1.594-1.04 2.39-1.786 2.39-2.239 0-.066-.144-.276-.434-.633a6.147 6.147 0 0 1-.76-1.216 44.06 44.06 0 0 1-.761-1.703c-.291-.682-.508-1.525-.652-2.533a22.73 22.73 0 0 1-.217-3.26c0-.648.071-1.169.217-1.558l1.956-2.725c-1.16-1.103-1.956-2.174-2.39-3.213-1.161-2.01-1.74-4.964-1.74-8.858 0-3.504.94-6.39 2.826-8.663 1.376-1.688 2.862-2.92 4.457-3.7.795-.39 2.027-.746 3.695-1.07.434-.13 1.196-.421 2.283-.877.435-.195 2.317-.292 5.652-.292M433.674 108.456c-1.677 0-3.137.673-4.38 2.017-.809.897-1.211 1.823-1.211 2.784 0 .64.28 1.056.838 1.248.994.383 3.852.575 8.575.575 1.613 0 2.421-.48 2.421-1.44 0-1.214-.652-2.462-1.956-3.744-1.057-.959-2.486-1.44-4.287-1.44m1.397-3.456c3.48 0 6.773 1.729 9.88 5.184 1.365 1.6 2.049 3.105 2.049 4.513 0 2.24-.964 3.36-2.889 3.36-.185 0-.59-.032-1.21-.097-.623-.062-1.026-.096-1.212-.096-.995 0-1.833.034-2.516.096-1.616.13-2.486.192-2.61.192H435.165c-.87 0-1.49-.031-1.863-.095-1.802-.193-2.922-.289-3.356-.289-1.244 0-2.298.417-3.167 1.248-.436.384-.653 1.024-.653 1.92 0 .513.03 1.056.093 1.632.31 2.497.527 3.904.653 4.224.497 1.024 1.708 2.368 3.634 4.032 1.428 1.282 2.546 2.049 3.355 2.304 1.18.384 2.237.576 3.168.576 1.18 0 3.013-.288 5.499-.865a9.497 9.497 0 0 0 2.423-.959c.248-.127.434-.193.56-.193.434 0 .652.258.652.77 0 .32-.127.736-.373 1.247l-.095.095c0 .065-.014.161-.046.29a1.602 1.602 0 0 0-.046.383c-.372 1.28-.9 2.272-1.585 2.976-.125.13-.56.48-1.305 1.056a14.937 14.937 0 0 1-2.888 1.727c-1.181.512-3.015.769-5.498.769-.684 0-1.865-.289-3.541-.864-1.554-.64-2.363-.992-2.424-1.057-.683-.447-1.553-1.406-2.61-2.88-.62-.83-1.77-2.687-3.447-5.567-.87-2.688-1.305-4.64-1.305-5.856 0-.064.187-1.31.56-3.743.682-4.225 1.615-7.04 2.796-8.448.682-1.023 1.707-2.463 3.075-4.32 2.484-2.175 5.031-3.265 7.64-3.265"/>
        <path fill="#1376B1" d="M95.984 170.722l-4.632-10.667-4.753 10.667h9.385zm.565 1.44H85.975l-1.853 4.167c-.456 1.024-.685 1.79-.685 2.297 0 .402.199.756.594 1.06.397.306 1.252.503 2.568.594v.72H78v-.72c1.14-.195 1.879-.447 2.215-.759.686-.623 1.443-1.888 2.276-3.795L92.097 154h.705l9.506 21.958c.764 1.766 1.46 2.91 2.084 3.436.624.526 1.494.822 2.608.886v.72H96.225v-.72c1.088-.051 1.823-.227 2.206-.525.382-.299.573-.663.573-1.091 0-.57-.268-1.472-.804-2.706l-1.651-3.795zM114.142 153v23.07c0 1.088.08 1.81.24 2.164.161.356.41.625.745.808.334.184.958.275 1.873.275V180h-8.672v-.683c.81 0 1.365-.082 1.661-.247.295-.164.528-.437.696-.817.167-.378.25-1.106.25-2.183v-15.797c0-1.963-.045-3.17-.134-3.619-.091-.45-.236-.756-.435-.92-.2-.164-.454-.247-.764-.247-.335 0-.76.102-1.274.304l-.328-.664 5.272-2.127h.87zM120 163h7.696v.705c-.709.052-1.173.172-1.394.363-.22.19-.33.465-.33.82 0 .394.113.871.34 1.43l3.929 10.047 3.948-8.178-1.042-2.574c-.32-.763-.741-1.291-1.263-1.583-.294-.178-.842-.286-1.643-.325V163h8.738v.705c-.963.039-1.644.204-2.044.497-.268.203-.4.527-.4.972 0 .254.051.515.16.782l4.167 10.03 3.869-9.668c.268-.687.4-1.233.4-1.64 0-.24-.13-.458-.39-.648s-.771-.3-1.533-.325V163H149v.705c-1.163.166-2.018.916-2.566 2.25L140.302 181h-.821l-4.59-11.155L129.539 181h-.741l-5.892-14.682c-.388-.928-.769-1.554-1.143-1.878-.373-.325-.962-.57-1.763-.735V163zM160.42 175.959v-6.531c-2.057.749-3.385 1.28-3.984 1.59-1.077.55-1.846 1.124-2.31 1.722-.462.599-.694 1.254-.694 1.964 0 .9.293 1.644.88 2.237.585.593 1.26.888 2.022.888 1.035 0 2.397-.624 4.086-1.87m0 1.216c-1.92 1.359-3.126 2.145-3.616 2.357a5.955 5.955 0 0 1-2.351.468c-1.293 0-2.36-.405-3.196-1.216-.838-.811-1.257-1.877-1.257-3.2 0-.835.204-1.559.613-2.17.559-.848 1.529-1.647 2.911-2.396 1.383-.747 3.681-1.659 6.896-2.731v-.674c0-1.709-.296-2.881-.89-3.517-.59-.636-1.453-.955-2.582-.955-.86 0-1.54.212-2.045.636-.517.425-.777.911-.777 1.46l.043 1.085c0 .574-.161 1.017-.481 1.329-.321.312-.74.467-1.257.467-.504 0-.916-.161-1.235-.486-.322-.324-.482-.767-.482-1.328 0-1.074.6-2.059 1.798-2.957 1.2-.898 2.882-1.347 5.048-1.347 1.662 0 3.024.256 4.086.767a3.662 3.662 0 0 1 1.778 1.815c.245.537.368 1.635.368 3.294v5.818c0 1.635.033 2.635.103 3.003.068.368.18.615.335.74a.85.85 0 0 0 .543.187c.217 0 .408-.045.572-.132.286-.161.838-.617 1.655-1.366v1.049c-1.526 1.87-2.984 2.806-4.373 2.806-.668 0-1.198-.212-1.594-.636-.395-.424-.6-1.147-.613-2.17"/>
        <g transform="translate(167 162)">
            <mask id="f" fill="#fff">
                <use xlink:href="#e"/>
            </mask>
            <path fill="#1376B1" d="M.182.262h8.592v.7H8.35c-.604 0-1.057.124-1.359.37-.301.248-.452.554-.452.92 0 .492.221 1.175.665 2.047l4.486 8.756 4.125-9.59c.227-.519.342-1.03.342-1.536 0-.226-.048-.397-.14-.511-.108-.138-.276-.249-.503-.332-.229-.081-.632-.124-1.208-.124v-.7h5.997v.7c-.498.052-.88.153-1.147.305-.27.15-.565.436-.886.853-.121.177-.35.663-.684 1.459L10.081 20.9c-.723 1.68-1.672 2.951-2.847 3.81-1.173.86-2.303 1.29-3.39 1.29-.792 0-1.443-.217-1.952-.645-.51-.43-.765-.923-.765-1.478 0-.531.185-.958.554-1.28.369-.322.875-.483 1.518-.483.444 0 1.048.138 1.812.417.536.189.871.284 1.006.284.402 0 .842-.196 1.318-.588.475-.392.956-1.15 1.439-2.274l1.307-3.014L3.46 3.844c-.2-.391-.523-.877-.965-1.46-.336-.442-.61-.739-.826-.89C1.362 1.291.866 1.114.182.961v-.7z" mask="url(#f)"/>
        </g>
        <path fill="#1376B1" d="M200.675 162v6.106h-.634c-.487-1.918-1.11-3.223-1.87-3.914-.763-.692-1.733-1.037-2.91-1.037-.897 0-1.62.241-2.169.725-.551.482-.827 1.017-.827 1.603 0 .73.206 1.357.615 1.879.397.535 1.203 1.103 2.42 1.703l2.803 1.388c2.598 1.292 3.897 2.995 3.897 5.107 0 1.632-.605 2.946-1.815 3.944-1.208.998-2.562 1.496-4.06 1.496-1.076 0-2.304-.194-3.687-.587-.422-.13-.767-.195-1.035-.195-.296 0-.526.17-.693.509h-.632v-6.399h.632c.36 1.827 1.043 3.203 2.055 4.129 1.01.926 2.144 1.39 3.398 1.39.884 0 1.604-.265 2.16-.793.557-.528.835-1.164.835-1.908 0-.901-.31-1.656-.931-2.27-.62-.613-1.859-1.39-3.715-2.33-1.856-.938-3.072-1.786-3.647-2.543-.577-.743-.865-1.683-.865-2.817 0-1.474.496-2.706 1.489-3.698.992-.992 2.274-1.488 3.849-1.488.69 0 1.529.15 2.515.45.653.196 1.088.293 1.305.293.205 0 .366-.045.48-.136.115-.092.25-.294.403-.607h.634zM220.648 153c.548 0 1.015.187 1.401.56.385.374.579.826.579 1.357 0 .532-.194.988-.579 1.368-.386.38-.853.569-1.401.569-.55 0-1.02-.19-1.412-.57a1.836 1.836 0 0 1-.589-1.367c0-.531.192-.983.579-1.357.384-.373.859-.56 1.422-.56zm1.627 9.095v13.975c0 1.088.081 1.814.245 2.174.163.361.404.63.725.807.32.177.904.266 1.755.266V180h-8.725v-.683c.876 0 1.464-.082 1.764-.247.3-.164.54-.437.717-.817.175-.378.264-1.106.264-2.183v-6.702c0-1.887-.06-3.108-.177-3.666-.09-.404-.235-.687-.43-.844-.197-.158-.465-.238-.804-.238-.367 0-.81.095-1.334.285l-.275-.683 5.413-2.127h.862zM232.361 165.703c2.141-2.469 4.18-3.703 6.123-3.703.996 0 1.853.24 2.571.716.718.478 1.289 1.263 1.716 2.358.292.764.438 1.933.438 3.512v7.463c0 1.107.092 1.858.28 2.252.145.319.38.567.707.745.325.178.927.266 1.804.266V180h-9.032v-.688h.379c.85 0 1.445-.123 1.784-.371.338-.249.574-.614.708-1.098.053-.19.08-.789.08-1.794v-7.158c0-1.591-.215-2.745-.649-3.465-.431-.718-1.16-1.078-2.183-1.078-1.582 0-3.157.827-4.726 2.482v9.22c0 1.182.073 1.914.22 2.194.186.37.441.64.768.81.325.173.987.258 1.983.258V180H226.3v-.688h.4c.93 0 1.558-.225 1.884-.677.325-.452.49-1.313.49-2.586v-6.49c0-2.1-.052-3.378-.152-3.836-.099-.459-.252-.77-.458-.936-.206-.165-.482-.248-.827-.248-.373 0-.818.095-1.337.286l-.299-.686 5.504-2.139h.857v3.703zM275.202 154v8.93h-.74c-.239-1.713-.669-3.079-1.288-4.094-.619-1.015-1.501-1.821-2.647-2.418-1.145-.597-2.33-.895-3.556-.895-1.385 0-2.53.403-3.436 1.209-.906.806-1.36 1.723-1.36 2.752 0 .787.287 1.504.86 2.151.826.952 2.79 2.222 5.895 3.808 2.53 1.296 4.257 2.289 5.184 2.98.925.692 1.638 1.507 2.137 2.448.499.939.749 1.922.749 2.95 0 1.955-.796 3.641-2.387 5.055-1.593 1.416-3.64 2.124-6.145 2.124-.785 0-1.524-.058-2.216-.172-.413-.063-1.27-.294-2.567-.695-1.298-.4-2.122-.6-2.467-.6-.334 0-.597.095-.79.286-.193.19-.336.584-.43 1.181h-.739v-8.854h.74c.346 1.853.812 3.24 1.399 4.16.585.921 1.48 1.686 2.687 2.294 1.205.61 2.527.915 3.965.915 1.664 0 2.98-.419 3.946-1.257.966-.839 1.448-1.828 1.448-2.971 0-.634-.184-1.275-.55-1.922-.366-.649-.936-1.25-1.709-1.81-.518-.38-1.936-1.19-4.254-2.427-2.317-1.239-3.966-2.224-4.944-2.962-.979-.735-1.722-1.547-2.229-2.436a5.827 5.827 0 0 1-.758-2.932c0-1.853.745-3.45 2.237-4.79 1.493-1.338 3.39-2.008 5.694-2.008 1.438 0 2.963.336 4.575 1.009.745.318 1.272.476 1.578.476.347 0 .63-.098.848-.295.22-.197.398-.593.53-1.19h.74zM284.749 168.158h8.206c-.065-1.147-.2-1.955-.407-2.424a3.865 3.865 0 0 0-1.441-1.72c-.64-.416-1.307-.626-2.004-.626-1.07 0-2.029.42-2.874 1.261-.845.841-1.34 2.01-1.48 3.509zm0 1.134c-.013 2.658.626 4.743 1.916 6.254 1.29 1.512 2.807 2.268 4.549 2.268 1.161 0 2.17-.323 3.029-.968.857-.645 1.577-1.75 2.157-3.313l.6.392c-.27 1.784-1.058 3.41-2.36 4.875-1.305 1.467-2.936 2.2-4.898 2.2-2.129 0-3.952-.838-5.467-2.511-1.517-1.675-2.275-3.927-2.275-6.754 0-3.063.776-5.45 2.332-7.164 1.555-1.714 3.506-2.571 5.855-2.571 1.988 0 3.62.662 4.898 1.985 1.276 1.322 1.915 3.092 1.915 5.307h-12.251zM310.42 175.959v-6.531c-2.057.749-3.385 1.28-3.984 1.59-1.077.55-1.846 1.124-2.31 1.722-.462.599-.693 1.254-.693 1.964 0 .9.292 1.644.877 2.237.585.593 1.26.888 2.024.888 1.035 0 2.396-.624 4.086-1.87m0 1.216c-1.92 1.359-3.127 2.145-3.616 2.357a5.964 5.964 0 0 1-2.351.468c-1.293 0-2.36-.405-3.196-1.216-.838-.811-1.257-1.877-1.257-3.2 0-.835.204-1.559.612-2.17.56-.848 1.53-1.647 2.912-2.396 1.382-.747 3.681-1.659 6.896-2.731v-.674c0-1.709-.296-2.881-.89-3.517-.59-.636-1.453-.955-2.582-.955-.86 0-1.54.212-2.045.636-.517.425-.777.911-.777 1.46l.043 1.085c0 .574-.163 1.017-.482 1.329-.32.312-.737.467-1.256.467-.505 0-.917-.161-1.237-.486-.32-.324-.48-.767-.48-1.328 0-1.074.599-2.059 1.798-2.957 1.2-.898 2.882-1.347 5.048-1.347 1.662 0 3.024.256 4.086.767a3.662 3.662 0 0 1 1.778 1.815c.245.537.368 1.635.368 3.294v5.818c0 1.635.033 2.635.101 3.003.068.368.181.615.337.74a.848.848 0 0 0 .543.187c.217 0 .408-.045.572-.132.285-.161.837-.617 1.655-1.366v1.049c-1.526 1.87-2.984 2.806-4.373 2.806-.668 0-1.198-.212-1.594-.636-.396-.424-.6-1.147-.613-2.17M329.675 162v6.106h-.635c-.486-1.918-1.11-3.223-1.87-3.914-.762-.692-1.733-1.037-2.909-1.037-.897 0-1.62.241-2.17.725-.55.482-.826 1.017-.826 1.603 0 .73.205 1.357.614 1.879.397.535 1.204 1.103 2.42 1.703l2.802 1.388c2.6 1.292 3.899 2.995 3.899 5.107 0 1.632-.606 2.946-1.816 3.944-1.208.998-2.562 1.496-4.06 1.496-1.075 0-2.304-.194-3.686-.587-.422-.13-.767-.195-1.037-.195-.295 0-.524.17-.69.509h-.635v-6.399h.634c.358 1.827 1.043 3.203 2.055 4.129 1.01.926 2.143 1.39 3.398 1.39.883 0 1.603-.265 2.159-.793.557-.528.836-1.164.836-1.908 0-.901-.31-1.656-.931-2.27-.621-.613-1.859-1.39-3.716-2.33-1.855-.938-3.072-1.786-3.647-2.543-.577-.743-.864-1.683-.864-2.817 0-1.474.496-2.706 1.488-3.698s2.274-1.488 3.848-1.488c.692 0 1.53.15 2.516.45.653.196 1.087.293 1.306.293.205 0 .365-.045.48-.136.115-.092.25-.294.402-.607h.635zM342.39 163.272c-.722 0-1.444.205-2.17.616-.726.41-1.313 1.132-1.762 2.162-.448 1.03-.672 2.355-.672 3.972 0 2.61.539 4.86 1.62 6.751 1.078 1.892 2.501 2.838 4.265 2.838 1.317 0 2.403-.521 3.259-1.566.855-1.043 1.283-2.837 1.283-5.38 0-3.183-.712-5.688-2.139-7.515-.963-1.252-2.191-1.878-3.684-1.878m.63-1.272c2.825 0 5.092 1.03 6.802 3.092 1.451 1.76 2.178 3.783 2.178 6.065 0 1.605-.4 3.23-1.2 4.873-.802 1.645-1.906 2.883-3.31 3.718-1.405.835-2.97 1.252-4.694 1.252-2.81 0-5.044-1.077-6.7-3.228-1.399-1.814-2.096-3.849-2.096-6.105 0-1.645.422-3.28 1.273-4.903.847-1.623 1.964-2.825 3.348-3.6a8.862 8.862 0 0 1 4.4-1.164M360.361 165.703c2.141-2.469 4.18-3.703 6.121-3.703.998 0 1.855.24 2.573.716.718.478 1.29 1.263 1.716 2.358.292.764.438 1.933.438 3.512v7.463c0 1.107.092 1.858.28 2.252.145.319.382.567.707.745.326.178.927.266 1.804.266V180h-9.033v-.688h.38c.85 0 1.445-.123 1.784-.371.338-.249.574-.614.708-1.098.053-.19.08-.789.08-1.794v-7.158c0-1.591-.215-2.745-.649-3.465-.433-.718-1.16-1.078-2.182-1.078-1.583 0-3.158.827-4.727 2.482v9.22c0 1.182.073 1.914.22 2.194.186.37.441.64.768.81.326.173.987.258 1.983.258V180H354.3v-.688h.4c.93 0 1.559-.225 1.884-.677.325-.452.49-1.313.49-2.586v-6.49c0-2.1-.052-3.378-.152-3.836-.1-.459-.252-.77-.458-.936-.205-.165-.482-.248-.828-.248-.372 0-.817.095-1.336.286l-.299-.686 5.504-2.139h.857v3.703z"/>
    </g>
</svg>
